<svg xmlns="http://www.w3.org/2000/svg" viewBox="0 0 512 512" role="img" aria-labelledby="title">
  <title id="title">Stag Creations logo</title>
  <g fill="#ff9718">
    <path d="M232 189c-20-7-35-16-47-27l-29-6 13-13-15-38 28 30 19 5c-17-35-15-67-4-91 8-18 19-31 33-43-9 16-16 32-20 47-4 18-4 37 2 57l18 28 16 18c7-12 17-20 30-22 13 2 23 10 30 22l16-18 18-28c6-20 6-39 2-57-4-15-11-31-20-47 14 12 25 25 33 43 11 24 13 56-4 91l19-5 28-30-15 38 13 13-29 6c-12 11-27 20-47 27l-9 27-18 4-17 27-17-27-18-4-9-27Z"/>
    <path d="M238 212c24 14 51 13 72 1 31 32 47 68 47 108 0 34-10 60-32 80l-11-50-16 34-10-42-17 39 3 101h-19l-15-117-19 72-20-2-4-65-20 49-23-4-23 74h-20l19-117 26-45 25-23 31 7c38 8 67 0 87-24 16-19 17-39 3-59-19 13-39 7-63-19Z"/>
    <path d="m183 323-27 34-42 21 24-31 45-24Zm132 75 20 34 20-20-2 71h-19l-19-85Z"/>
  </g>
</svg>
